<?xml version="1.0" encoding="UTF-8" standalone="no"?>
<score-partwise>
<work>
<work-title/>
</work>
<identification>
<encoding>
<software>TuxGuitar</software>
</encoding>
<creator type="composer"/>
</identification>
<part-list>
<score-part id="P1">
<part-name>Track 1</part-name>
<score-instrument id="P1-I1">
<instrument-name>Steel String Guitar 1</instrument-name>
</score-instrument>
<midi-instrument id="P1-I1">
<midi-channel>1</midi-channel>
<midi-program>26</midi-program>
</midi-instrument>
</score-part>
</part-list>
<part id="P1">
<measure number="1">
<attributes>
<divisions>960</divisions>
<key>
<fifths>0</fifths>
<mode>minor</mode>
</key>
<clef>
<sign>G</sign>
<line>2</line>
</clef>
<time>
<beats>4</beats>
<beat-type>4</beat-type>
</time>
<staff-details>
<staff-lines>6</staff-lines>
<staff-tuning line="1">
<tuning-step>E</tuning-step>
<tuning-octave>3</tuning-octave>
</staff-tuning>
<staff-tuning line="2">
<tuning-step>A</tuning-step>
<tuning-octave>3</tuning-octave>
</staff-tuning>
<staff-tuning line="3">
<tuning-step>D</tuning-step>
<tuning-octave>4</tuning-octave>
</staff-tuning>
<staff-tuning line="4">
<tuning-step>G</tuning-step>
<tuning-octave>4</tuning-octave>
</staff-tuning>
<staff-tuning line="5">
<tuning-step>B</tuning-step>
<tuning-octave>4</tuning-octave>
</staff-tuning>
<staff-tuning line="6">
<tuning-step>E</tuning-step>
<tuning-octave>5</tuning-octave>
</staff-tuning>
</staff-details>
</attributes>
<direction placement="above">
<sound tempo="112"/>
</direction>
<note>
<rest/>
<voice>1</voice>
<duration>1920</duration>
<type>half</type>
</note>
<note>
<rest/>
<voice>1</voice>
<duration>960</duration>
<type>quarter</type>
</note>
<note>
<pitch>
<step>A</step>
<octave>5</octave>
</pitch>
<notations>
<technical>
<fret>14</fret>
<string>3</string>
</technical>
</notations>
<voice>1</voice>
<duration>480</duration>
<type>eighth</type>
</note>
<note>
<pitch>
<step>A</step>
<octave>5</octave>
</pitch>
<notations>
<technical>
<fret>14</fret>
<string>3</string>
</technical>
</notations>
<voice>1</voice>
<duration>480</duration>
<type>eighth</type>
<tie type="stop"/>
</note>
</measure>
<measure number="2">
<note>
<rest/>
<voice>1</voice>
<duration>480</duration>
<type>eighth</type>
</note>
<note>
<pitch>
<step>G</step>
<octave>5</octave>
</pitch>
<notations>
<technical>
<fret>12</fret>
<string>3</string>
</technical>
</notations>
<voice>1</voice>
<duration>480</duration>
<type>eighth</type>
</note>
<note>
<pitch>
<step>A</step>
<octave>5</octave>
</pitch>
<notations>
<technical>
<fret>14</fret>
<string>3</string>
</technical>
</notations>
<voice>1</voice>
<duration>480</duration>
<type>eighth</type>
</note>
<note>
<pitch>
<step>A</step>
<octave>5</octave>
</pitch>
<notations>
<technical>
<fret>14</fret>
<string>3</string>
</technical>
</notations>
<voice>1</voice>
<duration>480</duration>
<type>eighth</type>
<tie type="stop"/>
</note>
<note>
<pitch>
<step>C</step>
<octave>6</octave>
</pitch>
<notations>
<technical>
<fret>13</fret>
<string>2</string>
</technical>
</notations>
<voice>1</voice>
<duration>480</duration>
<type>eighth</type>
</note>
<note>
<pitch>
<step>C</step>
<octave>6</octave>
</pitch>
<notations>
<technical>
<fret>13</fret>
<string>2</string>
</technical>
</notations>
<voice>1</voice>
<duration>480</duration>
<type>eighth</type>
<tie type="stop"/>
</note>
<note>
<pitch>
<step>D</step>
<octave>6</octave>
</pitch>
<notations>
<technical>
<fret>15</fret>
<string>2</string>
</technical>
</notations>
<voice>1</voice>
<duration>480</duration>
<type>eighth</type>
</note>
<note>
<rest/>
<voice>1</voice>
<duration>480</duration>
<type>eighth</type>
</note>
</measure>
<measure number="3">
<note>
<pitch>
<step>C</step>
<octave>6</octave>
</pitch>
<notations>
<technical>
<fret>13</fret>
<string>2</string>
</technical>
</notations>
<voice>1</voice>
<duration>960</duration>
<type>quarter</type>
</note>
<note>
<pitch>
<step>A</step>
<octave>5</octave>
</pitch>
<notations>
<technical>
<fret>14</fret>
<string>3</string>
</technical>
</notations>
<voice>1</voice>
<duration>2880</duration>
<type>half</type>
<dot/>
</note>
</measure>
<measure number="4">
<note>
<pitch>
<step>G</step>
<octave>5</octave>
</pitch>
<notations>
<technical>
<fret>12</fret>
<string>3</string>
</technical>
</notations>
<voice>1</voice>
<duration>480</duration>
<type>eighth</type>
</note>
<note>
<pitch>
<step>A</step>
<octave>5</octave>
</pitch>
<notations>
<technical>
<fret>14</fret>
<string>3</string>
</technical>
</notations>
<voice>1</voice>
<duration>480</duration>
<type>eighth</type>
</note>
<note>
<pitch>
<step>A</step>
<octave>5</octave>
</pitch>
<notations>
<technical>
<fret>14</fret>
<string>3</string>
</technical>
</notations>
<voice>1</voice>
<duration>960</duration>
<type>quarter</type>
<tie type="stop"/>
</note>
<note>
<pitch>
<step>A</step>
<octave>5</octave>
</pitch>
<notations>
<technical>
<fret>14</fret>
<string>3</string>
</technical>
</notations>
<voice>1</voice>
<duration>960</duration>
<type>quarter</type>
</note>
<note>
<pitch>
<step>A</step>
<octave>5</octave>
</pitch>
<notations>
<technical>
<fret>14</fret>
<string>3</string>
</technical>
</notations>
<voice>1</voice>
<duration>960</duration>
<type>quarter</type>
<tie type="stop"/>
</note>
</measure>
<measure number="5">
<note>
<pitch>
<step>A</step>
<octave>5</octave>
</pitch>
<notations>
<technical>
<fret>14</fret>
<string>3</string>
</technical>
</notations>
<voice>1</voice>
<duration>960</duration>
<type>quarter</type>
<tie type="stop"/>
</note>
<note>
<pitch>
<step>A</step>
<octave>5</octave>
</pitch>
<notations>
<technical>
<fret>14</fret>
<string>3</string>
</technical>
</notations>
<voice>1</voice>
<duration>960</duration>
<type>quarter</type>
<tie type="stop"/>
</note>
<note>
<pitch>
<step>A</step>
<octave>5</octave>
</pitch>
<notations>
<technical>
<fret>14</fret>
<string>3</string>
</technical>
</notations>
<voice>1</voice>
<duration>960</duration>
<type>quarter</type>
<tie type="stop"/>
</note>
<note>
<pitch>
<step>A</step>
<octave>5</octave>
</pitch>
<notations>
<technical>
<fret>14</fret>
<string>3</string>
</technical>
</notations>
<voice>1</voice>
<duration>960</duration>
<type>quarter</type>
<tie type="stop"/>
</note>
</measure>
<measure number="6">
<note>
<pitch>
<step>G</step>
<octave>5</octave>
</pitch>
<notations>
<technical>
<fret>12</fret>
<string>3</string>
</technical>
</notations>
<voice>1</voice>
<duration>480</duration>
<type>eighth</type>
</note>
<note>
<pitch>
<step>A</step>
<octave>5</octave>
</pitch>
<notations>
<technical>
<fret>14</fret>
<string>3</string>
</technical>
</notations>
<voice>1</voice>
<duration>480</duration>
<type>eighth</type>
</note>
<note>
<pitch>
<step>A</step>
<octave>5</octave>
</pitch>
<notations>
<technical>
<fret>14</fret>
<string>3</string>
</technical>
</notations>
<voice>1</voice>
<duration>960</duration>
<type>quarter</type>
<tie type="stop"/>
</note>
<note>
<pitch>
<step>A</step>
<octave>5</octave>
</pitch>
<notations>
<technical>
<fret>14</fret>
<string>3</string>
</technical>
</notations>
<voice>1</voice>
<duration>1920</duration>
<type>half</type>
</note>
</measure>
<measure number="7">
<note>
<pitch>
<step>A</step>
<octave>5</octave>
</pitch>
<notations>
<technical>
<fret>14</fret>
<string>3</string>
</technical>
</notations>
<voice>1</voice>
<duration>960</duration>
<type>quarter</type>
<tie type="stop"/>
</note>
<note>
<pitch>
<step>A</step>
<octave>5</octave>
</pitch>
<notations>
<technical>
<fret>14</fret>
<string>3</string>
</technical>
</notations>
<voice>1</voice>
<duration>960</duration>
<type>quarter</type>
<tie type="stop"/>
</note>
<note>
<pitch>
<step>A</step>
<octave>5</octave>
</pitch>
<notations>
<technical>
<fret>14</fret>
<string>3</string>
</technical>
</notations>
<voice>1</voice>
<duration>960</duration>
<type>quarter</type>
<tie type="stop"/>
</note>
<note>
<pitch>
<step>G</step>
<octave>5</octave>
</pitch>
<notations>
<technical>
<fret>12</fret>
<string>3</string>
</technical>
</notations>
<voice>1</voice>
<duration>480</duration>
<type>eighth</type>
</note>
<note>
<pitch>
<step>A</step>
<octave>5</octave>
</pitch>
<notations>
<technical>
<fret>14</fret>
<string>3</string>
</technical>
</notations>
<voice>1</voice>
<duration>480</duration>
<type>eighth</type>
</note>
</measure>
<measure number="8">
<note>
<pitch>
<step>A</step>
<octave>5</octave>
</pitch>
<notations>
<technical>
<fret>14</fret>
<string>3</string>
</technical>
</notations>
<voice>1</voice>
<duration>960</duration>
<type>quarter</type>
<tie type="stop"/>
</note>
<note>
<pitch>
<step>D</step>
<octave>6</octave>
</pitch>
<notations>
<technical>
<fret>15</fret>
<string>2</string>
</technical>
</notations>
<voice>1</voice>
<duration>480</duration>
<type>eighth</type>
</note>
<note>
<pitch>
<step>D</step>
<octave>6</octave>
</pitch>
<notations>
<technical>
<fret>15</fret>
<string>2</string>
</technical>
</notations>
<voice>1</voice>
<duration>480</duration>
<type>eighth</type>
<tie type="stop"/>
</note>
<note>
<pitch>
<step>D</step>
<octave>6</octave>
</pitch>
<notations>
<technical>
<fret>15</fret>
<string>2</string>
</technical>
</notations>
<voice>1</voice>
<duration>480</duration>
<type>eighth</type>
<tie type="stop"/>
</note>
<note>
<pitch>
<step>C</step>
<octave>6</octave>
</pitch>
<notations>
<technical>
<fret>13</fret>
<string>2</string>
</technical>
</notations>
<voice>1</voice>
<duration>480</duration>
<type>eighth</type>
</note>
<note>
<pitch>
<step>D</step>
<octave>6</octave>
</pitch>
<notations>
<technical>
<fret>15</fret>
<string>2</string>
</technical>
</notations>
<voice>1</voice>
<duration>960</duration>
<type>quarter</type>
</note>
</measure>
<measure number="9">
<note>
<pitch>
<step>D</step>
<octave>6</octave>
</pitch>
<notations>
<technical>
<fret>15</fret>
<string>2</string>
</technical>
</notations>
<voice>1</voice>
<duration>960</duration>
<type>quarter</type>
<tie type="stop"/>
</note>
<note>
<pitch>
<step>G</step>
<octave>6</octave>
</pitch>
<notations>
<technical>
<fret>15</fret>
<string>1</string>
</technical>
</notations>
<voice>1</voice>
<duration>480</duration>
<type>eighth</type>
</note>
<note>
<pitch>
<step>G</step>
<octave>6</octave>
</pitch>
<notations>
<technical>
<fret>15</fret>
<string>1</string>
</technical>
</notations>
<voice>1</voice>
<duration>480</duration>
<type>eighth</type>
<tie type="stop"/>
</note>
<note>
<pitch>
<step>D</step>
<octave>6</octave>
</pitch>
<notations>
<technical>
<fret>15</fret>
<string>2</string>
</technical>
</notations>
<voice>1</voice>
<duration>480</duration>
<type>eighth</type>
<chord/>
</note>
<note>
<pitch>
<step>G</step>
<octave>6</octave>
</pitch>
<notations>
<technical>
<fret>15</fret>
<string>1</string>
</technical>
</notations>
<voice>1</voice>
<duration>960</duration>
<type>quarter</type>
<tie type="stop"/>
</note>
<note>
<pitch>
<step>D</step>
<octave>6</octave>
</pitch>
<notations>
<technical>
<fret>15</fret>
<string>2</string>
</technical>
</notations>
<voice>1</voice>
<duration>960</duration>
<type>quarter</type>
<tie type="stop"/>
<chord/>
</note>
<note>
<pitch>
<step>D</step>
<octave>6</octave>
</pitch>
<notations>
<technical>
<fret>15</fret>
<string>2</string>
</technical>
</notations>
<voice>1</voice>
<duration>960</duration>
<type>quarter</type>
</note>
</measure>
<measure number="10">
<note>
<pitch>
<step>C</step>
<octave>6</octave>
</pitch>
<notations>
<technical>
<fret>13</fret>
<string>2</string>
</technical>
</notations>
<voice>1</voice>
<duration>960</duration>
<type>quarter</type>
</note>
<note>
<pitch>
<step>G</step>
<octave>6</octave>
</pitch>
<notations>
<technical>
<fret>15</fret>
<string>1</string>
</technical>
</notations>
<voice>1</voice>
<duration>960</duration>
<type>quarter</type>
</note>
<note>
<pitch>
<step>G</step>
<octave>6</octave>
</pitch>
<notations>
<technical>
<fret>15</fret>
<string>1</string>
</technical>
</notations>
<voice>1</voice>
<duration>960</duration>
<type>quarter</type>
</note>
<note>
<pitch>
<step>G</step>
<octave>6</octave>
</pitch>
<notations>
<technical>
<fret>15</fret>
<string>1</string>
</technical>
</notations>
<voice>1</voice>
<duration>960</duration>
<type>quarter</type>
</note>
</measure>
<measure number="11">
<note>
<pitch>
<step>G</step>
<octave>6</octave>
</pitch>
<notations>
<technical>
<fret>15</fret>
<string>1</string>
</technical>
</notations>
<voice>1</voice>
<duration>1920</duration>
<type>half</type>
</note>
<note>
<pitch>
<step>G</step>
<octave>6</octave>
</pitch>
<notations>
<technical>
<fret>15</fret>
<string>1</string>
</technical>
</notations>
<voice>1</voice>
<duration>480</duration>
<type>eighth</type>
</note>
<note>
<pitch>
<step>G</step>
<octave>6</octave>
</pitch>
<notations>
<technical>
<fret>15</fret>
<string>1</string>
</technical>
</notations>
<voice>1</voice>
<duration>960</duration>
<type>quarter</type>
<tie type="stop"/>
</note>
<note>
<pitch>
<step>G</step>
<octave>6</octave>
</pitch>
<notations>
<technical>
<fret>15</fret>
<string>1</string>
</technical>
</notations>
<voice>1</voice>
<duration>480</duration>
<type>eighth</type>
</note>
</measure>
<measure number="12">
<note>
<pitch>
<step>G</step>
<octave>6</octave>
</pitch>
<notations>
<technical>
<fret>15</fret>
<string>1</string>
</technical>
</notations>
<voice>1</voice>
<duration>480</duration>
<type>eighth</type>
<tie type="stop"/>
</note>
<note>
<pitch>
<step>G</step>
<octave>6</octave>
</pitch>
<notations>
<technical>
<fret>15</fret>
<string>1</string>
</technical>
</notations>
<voice>1</voice>
<duration>480</duration>
<type>eighth</type>
<tie type="stop"/>
</note>
<note>
<pitch>
<step>G</step>
<octave>6</octave>
</pitch>
<notations>
<technical>
<fret>15</fret>
<string>1</string>
</technical>
</notations>
<voice>1</voice>
<duration>480</duration>
<type>eighth</type>
<tie type="stop"/>
</note>
<note>
<pitch>
<step>E</step>
<octave>6</octave>
</pitch>
<notations>
<technical>
<fret>12</fret>
<string>1</string>
</technical>
</notations>
<voice>1</voice>
<duration>480</duration>
<type>eighth</type>
</note>
<note>
<pitch>
<step>D</step>
<octave>6</octave>
</pitch>
<notations>
<technical>
<fret>15</fret>
<string>2</string>
</technical>
</notations>
<voice>1</voice>
<duration>480</duration>
<type>eighth</type>
</note>
<note>
<pitch>
<step>D</step>
<octave>6</octave>
</pitch>
<notations>
<technical>
<fret>15</fret>
<string>2</string>
</technical>
</notations>
<voice>1</voice>
<duration>480</duration>
<type>eighth</type>
<tie type="stop"/>
</note>
<note>
<pitch>
<step>G</step>
<octave>6</octave>
</pitch>
<notations>
<technical>
<fret>15</fret>
<string>1</string>
</technical>
</notations>
<voice>1</voice>
<duration>480</duration>
<type>eighth</type>
</note>
<note>
<pitch>
<step>G</step>
<octave>6</octave>
</pitch>
<notations>
<technical>
<fret>15</fret>
<string>1</string>
</technical>
</notations>
<voice>1</voice>
<duration>480</duration>
<type>eighth</type>
<tie type="stop"/>
</note>
<note>
<pitch>
<step>D</step>
<octave>6</octave>
</pitch>
<notations>
<technical>
<fret>15</fret>
<string>2</string>
</technical>
</notations>
<voice>1</voice>
<duration>480</duration>
<type>eighth</type>
<chord/>
</note>
</measure>
<measure number="13">
<note>
<pitch>
<step>G</step>
<octave>6</octave>
</pitch>
<notations>
<technical>
<fret>15</fret>
<string>1</string>
</technical>
</notations>
<voice>1</voice>
<duration>960</duration>
<type>quarter</type>
<tie type="stop"/>
</note>
<note>
<pitch>
<step>D</step>
<octave>6</octave>
</pitch>
<notations>
<technical>
<fret>15</fret>
<string>2</string>
</technical>
</notations>
<voice>1</voice>
<duration>960</duration>
<type>quarter</type>
<tie type="stop"/>
<chord/>
</note>
<note>
<pitch>
<step>C</step>
<octave>6</octave>
</pitch>
<notations>
<technical>
<fret>13</fret>
<string>2</string>
</technical>
</notations>
<voice>1</voice>
<duration>480</duration>
<type>eighth</type>
</note>
<note>
<pitch>
<step>D</step>
<octave>6</octave>
</pitch>
<notations>
<technical>
<fret>15</fret>
<string>2</string>
</technical>
</notations>
<voice>1</voice>
<duration>480</duration>
<type>eighth</type>
</note>
<note>
<pitch>
<step>D</step>
<octave>6</octave>
</pitch>
<notations>
<technical>
<fret>15</fret>
<string>2</string>
</technical>
</notations>
<voice>1</voice>
<duration>480</duration>
<type>eighth</type>
<tie type="stop"/>
</note>
<note>
<pitch>
<step>G</step>
<octave>6</octave>
</pitch>
<notations>
<technical>
<fret>15</fret>
<string>1</string>
</technical>
</notations>
<voice>1</voice>
<duration>480</duration>
<type>eighth</type>
</note>
<note>
<pitch>
<step>G</step>
<octave>6</octave>
</pitch>
<notations>
<technical>
<fret>15</fret>
<string>1</string>
</technical>
</notations>
<voice>1</voice>
<duration>480</duration>
<type>eighth</type>
<tie type="stop"/>
</note>
<note>
<pitch>
<step>D</step>
<octave>6</octave>
</pitch>
<notations>
<technical>
<fret>15</fret>
<string>2</string>
</technical>
</notations>
<voice>1</voice>
<duration>480</duration>
<type>eighth</type>
<chord/>
</note>
<note>
<pitch>
<step>G</step>
<octave>6</octave>
</pitch>
<notations>
<technical>
<fret>15</fret>
<string>1</string>
</technical>
</notations>
<voice>1</voice>
<duration>480</duration>
<type>eighth</type>
<tie type="stop"/>
</note>
<note>
<pitch>
<step>D</step>
<octave>6</octave>
</pitch>
<notations>
<technical>
<fret>15</fret>
<string>2</string>
</technical>
</notations>
<voice>1</voice>
<duration>480</duration>
<type>eighth</type>
<tie type="stop"/>
<chord/>
</note>
</measure>
<measure number="14">
<note>
<pitch>
<step>C</step>
<octave>6</octave>
</pitch>
<notations>
<technical>
<fret>13</fret>
<string>2</string>
</technical>
</notations>
<voice>1</voice>
<duration>1920</duration>
<type>half</type>
</note>
<note>
<pitch>
<step>A</step>
<octave>5</octave>
</pitch>
<notations>
<technical>
<fret>14</fret>
<string>3</string>
</technical>
</notations>
<voice>1</voice>
<duration>480</duration>
<type>eighth</type>
</note>
<note>
<pitch>
<step>A</step>
<octave>5</octave>
</pitch>
<notations>
<technical>
<fret>14</fret>
<string>3</string>
</technical>
</notations>
<voice>1</voice>
<duration>480</duration>
<type>eighth</type>
<tie type="stop"/>
</note>
<note>
<pitch>
<step>G</step>
<octave>5</octave>
</pitch>
<notations>
<technical>
<fret>12</fret>
<string>3</string>
</technical>
</notations>
<voice>1</voice>
<duration>480</duration>
<type>eighth</type>
</note>
<note>
<pitch>
<step>A</step>
<octave>5</octave>
</pitch>
<notations>
<technical>
<fret>14</fret>
<string>3</string>
</technical>
</notations>
<voice>1</voice>
<duration>480</duration>
<type>eighth</type>
</note>
</measure>
<measure number="15">
<note>
<pitch>
<step>A</step>
<octave>5</octave>
</pitch>
<notations>
<technical>
<fret>14</fret>
<string>3</string>
</technical>
</notations>
<voice>1</voice>
<duration>960</duration>
<type>quarter</type>
<tie type="stop"/>
</note>
<note>
<pitch>
<step>A</step>
<octave>5</octave>
</pitch>
<notations>
<technical>
<fret>14</fret>
<string>3</string>
</technical>
</notations>
<voice>1</voice>
<duration>480</duration>
<type>eighth</type>
</note>
<note>
<pitch>
<step>A</step>
<octave>5</octave>
</pitch>
<notations>
<technical>
<fret>14</fret>
<string>3</string>
</technical>
</notations>
<voice>1</voice>
<duration>480</duration>
<type>eighth</type>
<tie type="stop"/>
</note>
<note>
<pitch>
<step>D</step>
<octave>5</octave>
</pitch>
<notations>
<technical>
<fret>12</fret>
<string>4</string>
</technical>
</notations>
<voice>1</voice>
<duration>480</duration>
<type>eighth</type>
</note>
<note>
<pitch>
<step>E</step>
<octave>5</octave>
</pitch>
<notations>
<technical>
<fret>14</fret>
<string>4</string>
</technical>
</notations>
<voice>1</voice>
<duration>480</duration>
<type>eighth</type>
</note>
<note>
<pitch>
<step>G</step>
<octave>5</octave>
</pitch>
<notations>
<technical>
<fret>12</fret>
<string>3</string>
</technical>
</notations>
<voice>1</voice>
<duration>480</duration>
<type>eighth</type>
</note>
<note>
<pitch>
<step>E</step>
<octave>5</octave>
</pitch>
<notations>
<technical>
<fret>14</fret>
<string>4</string>
</technical>
</notations>
<voice>1</voice>
<duration>480</duration>
<type>eighth</type>
</note>
</measure>
<measure number="16">
<note>
<pitch>
<step>D</step>
<octave>5</octave>
</pitch>
<notations>
<technical>
<fret>12</fret>
<string>4</string>
</technical>
</notations>
<voice>1</voice>
<duration>480</duration>
<type>eighth</type>
</note>
<note>
<pitch>
<step>C</step>
<octave>5</octave>
</pitch>
<notations>
<technical>
<fret>10</fret>
<string>4</string>
</technical>
</notations>
<voice>1</voice>
<duration>480</duration>
<type>eighth</type>
</note>
<note>
<pitch>
<step>D</step>
<octave>5</octave>
</pitch>
<notations>
<technical>
<fret>12</fret>
<string>4</string>
</technical>
</notations>
<voice>1</voice>
<duration>960</duration>
<type>quarter</type>
</note>
<note>
<pitch>
<step>C</step>
<octave>5</octave>
</pitch>
<notations>
<technical>
<fret>10</fret>
<string>4</string>
</technical>
</notations>
<voice>1</voice>
<duration>480</duration>
<type>eighth</type>
</note>
<note>
<pitch>
<step>D</step>
<octave>5</octave>
</pitch>
<notations>
<technical>
<fret>12</fret>
<string>4</string>
</technical>
</notations>
<voice>1</voice>
<duration>480</duration>
<type>eighth</type>
</note>
<note>
<pitch>
<step>C</step>
<octave>5</octave>
</pitch>
<notations>
<technical>
<fret>10</fret>
<string>4</string>
</technical>
</notations>
<voice>1</voice>
<duration>480</duration>
<type>eighth</type>
</note>
<note>
<rest/>
<voice>1</voice>
<duration>480</duration>
<type>eighth</type>
</note>
</measure>
<measure number="17">
<note>
<pitch>
<step>D</step>
<octave>5</octave>
</pitch>
<notations>
<technical>
<fret>12</fret>
<string>4</string>
</technical>
</notations>
<voice>1</voice>
<duration>480</duration>
<type>eighth</type>
</note>
<note>
<pitch>
<step>E</step>
<octave>5</octave>
</pitch>
<notations>
<technical>
<fret>14</fret>
<string>4</string>
</technical>
</notations>
<voice>1</voice>
<duration>480</duration>
<type>eighth</type>
</note>
<note>
<pitch>
<step>G</step>
<octave>5</octave>
</pitch>
<notations>
<technical>
<fret>12</fret>
<string>3</string>
</technical>
</notations>
<voice>1</voice>
<duration>480</duration>
<type>eighth</type>
</note>
<note>
<pitch>
<step>A</step>
<octave>5</octave>
</pitch>
<notations>
<technical>
<fret>14</fret>
<string>3</string>
</technical>
</notations>
<voice>1</voice>
<duration>480</duration>
<type>eighth</type>
</note>
<note>
<pitch>
<step>A</step>
<octave>5</octave>
</pitch>
<notations>
<technical>
<fret>14</fret>
<string>3</string>
</technical>
</notations>
<voice>1</voice>
<duration>480</duration>
<type>eighth</type>
</note>
<note>
<pitch>
<step>C</step>
<octave>6</octave>
</pitch>
<notations>
<technical>
<fret>17</fret>
<string>3</string>
</technical>
</notations>
<voice>1</voice>
<duration>480</duration>
<type>eighth</type>
</note>
<note>
<pitch>
<step>C</step>
<octave>6</octave>
</pitch>
<notations>
<technical>
<fret>17</fret>
<string>3</string>
</technical>
</notations>
<voice>1</voice>
<duration>480</duration>
<type>eighth</type>
</note>
<note>
<pitch>
<step>D</step>
<octave>6</octave>
</pitch>
<notations>
<technical>
<fret>19</fret>
<string>3</string>
</technical>
</notations>
<voice>1</voice>
<duration>480</duration>
<type>eighth</type>
</note>
</measure>
<measure number="18">
<note>
<pitch>
<step>D</step>
<octave>6</octave>
</pitch>
<notations>
<technical>
<fret>19</fret>
<string>3</string>
</technical>
</notations>
<voice>1</voice>
<duration>480</duration>
<type>eighth</type>
</note>
<note>
<pitch>
<step>D</step>
<octave>6</octave>
</pitch>
<notations>
<technical>
<fret>19</fret>
<string>3</string>
</technical>
</notations>
<voice>1</voice>
<duration>480</duration>
<type>eighth</type>
<tie type="stop"/>
</note>
<note>
<pitch>
<step>E</step>
<octave>6</octave>
</pitch>
<notations>
<technical>
<fret>17</fret>
<string>2</string>
</technical>
</notations>
<voice>1</voice>
<duration>480</duration>
<type>eighth</type>
</note>
<note>
<pitch>
<step>A</step>
<octave>6</octave>
</pitch>
<notations>
<technical>
<fret>17</fret>
<string>1</string>
</technical>
</notations>
<voice>1</voice>
<duration>480</duration>
<type>eighth</type>
</note>
<note>
<pitch>
<step>E</step>
<octave>6</octave>
</pitch>
<notations>
<technical>
<fret>17</fret>
<string>2</string>
</technical>
</notations>
<voice>1</voice>
<duration>480</duration>
<type>eighth</type>
<chord/>
</note>
<note>
<pitch>
<step>G</step>
<octave>6</octave>
</pitch>
<notations>
<technical>
<fret>20</fret>
<string>2</string>
</technical>
</notations>
<voice>1</voice>
<duration>480</duration>
<type>eighth</type>
</note>
<note>
<pitch>
<step>G</step>
<octave>6</octave>
</pitch>
<notations>
<technical>
<fret>20</fret>
<string>2</string>
</technical>
</notations>
<voice>1</voice>
<duration>480</duration>
<type>eighth</type>
<tie type="stop"/>
</note>
<note>
<pitch>
<step>G</step>
<octave>6</octave>
</pitch>
<notations>
<technical>
<fret>20</fret>
<string>2</string>
</technical>
</notations>
<voice>1</voice>
<duration>480</duration>
<type>eighth</type>
</note>
<note>
<pitch>
<step>G</step>
<octave>6</octave>
</pitch>
<notations>
<technical>
<fret>20</fret>
<string>2</string>
</technical>
</notations>
<voice>1</voice>
<duration>480</duration>
<type>eighth</type>
<tie type="stop"/>
</note>
</measure>
<measure number="19">
<note>
<pitch>
<step>G</step>
<octave>6</octave>
</pitch>
<notations>
<technical>
<fret>20</fret>
<string>2</string>
</technical>
</notations>
<voice>1</voice>
<duration>2880</duration>
<type>half</type>
<dot/>
</note>
<note>
<pitch>
<step>E</step>
<octave>5</octave>
</pitch>
<notations>
<technical>
<fret>0</fret>
<string>1</string>
</technical>
</notations>
<voice>1</voice>
<duration>960</duration>
<type>quarter</type>
</note>
</measure>
</part>
</score-partwise>
