<?xml version="1.0" encoding="UTF-8" standalone="no"?>
<score-partwise>
<work>
<work-title/>
</work>
<identification>
<encoding>
<software>TuxGuitar</software>
</encoding>
<creator type="composer"/>
</identification>
<part-list>
<score-part id="P1">
<part-name>Track 1</part-name>
<score-instrument id="P1-I1">
<instrument-name>Steel String Guitar 1</instrument-name>
</score-instrument>
<midi-instrument id="P1-I1">
<midi-channel>1</midi-channel>
<midi-program>26</midi-program>
</midi-instrument>
</score-part>
</part-list>
<part id="P1">
<measure number="1">
<attributes>
<divisions>960</divisions>
<key>
<fifths>3</fifths>
<mode>major</mode>
</key>
<clef>
<sign>G</sign>
<line>2</line>
</clef>
<time>
<beats>4</beats>
<beat-type>4</beat-type>
</time>
<staff-details>
<staff-lines>6</staff-lines>
<staff-tuning line="1">
<tuning-step>E</tuning-step>
<tuning-octave>3</tuning-octave>
</staff-tuning>
<staff-tuning line="2">
<tuning-step>A</tuning-step>
<tuning-octave>3</tuning-octave>
</staff-tuning>
<staff-tuning line="3">
<tuning-step>D</tuning-step>
<tuning-octave>4</tuning-octave>
</staff-tuning>
<staff-tuning line="4">
<tuning-step>G</tuning-step>
<tuning-octave>4</tuning-octave>
</staff-tuning>
<staff-tuning line="5">
<tuning-step>B</tuning-step>
<tuning-octave>4</tuning-octave>
</staff-tuning>
<staff-tuning line="6">
<tuning-step>E</tuning-step>
<tuning-octave>5</tuning-octave>
</staff-tuning>
</staff-details>
</attributes>
<direction placement="above">
<sound tempo="148"/>
</direction>
<note>
<pitch>
<step>A</step>
<octave>5</octave>
</pitch>
<notations>
<technical>
<fret>5</fret>
<string>1</string>
</technical>
</notations>
<voice>1</voice>
<duration>960</duration>
<type>quarter</type>
</note>
<note>
<pitch>
<step>E</step>
<octave>5</octave>
</pitch>
<notations>
<technical>
<fret>5</fret>
<string>2</string>
</technical>
</notations>
<voice>1</voice>
<duration>960</duration>
<type>quarter</type>
<chord/>
</note>
<note>
<pitch>
<step>A</step>
<octave>5</octave>
</pitch>
<notations>
<technical>
<fret>5</fret>
<string>1</string>
</technical>
</notations>
<voice>1</voice>
<duration>960</duration>
<type>quarter</type>
</note>
<note>
<pitch>
<step>E</step>
<octave>5</octave>
</pitch>
<notations>
<technical>
<fret>5</fret>
<string>2</string>
</technical>
</notations>
<voice>1</voice>
<duration>960</duration>
<type>quarter</type>
<chord/>
</note>
<note>
<pitch>
<step>A</step>
<octave>4</octave>
</pitch>
<notations>
<technical>
<fret>2</fret>
<string>3</string>
</technical>
</notations>
<voice>1</voice>
<duration>480</duration>
<type>eighth</type>
</note>
<note>
<pitch>
<step>B</step>
<octave>4</octave>
</pitch>
<notations>
<technical>
<fret>4</fret>
<string>3</string>
</technical>
</notations>
<voice>1</voice>
<duration>480</duration>
<type>eighth</type>
</note>
<note>
<pitch>
<step>B</step>
<octave>4</octave>
</pitch>
<notations>
<technical>
<fret>4</fret>
<string>3</string>
</technical>
</notations>
<voice>1</voice>
<duration>480</duration>
<type>eighth</type>
</note>
<note>
<pitch>
<step>A</step>
<octave>4</octave>
</pitch>
<notations>
<technical>
<fret>2</fret>
<string>3</string>
</technical>
</notations>
<voice>1</voice>
<duration>480</duration>
<type>eighth</type>
</note>
</measure>
<measure number="2">
<note>
<pitch>
<step>B</step>
<octave>4</octave>
</pitch>
<notations>
<technical>
<fret>4</fret>
<string>3</string>
</technical>
</notations>
<voice>1</voice>
<duration>480</duration>
<type>eighth</type>
</note>
<note>
<pitch>
<step>B</step>
<octave>4</octave>
</pitch>
<notations>
<technical>
<fret>4</fret>
<string>3</string>
</technical>
</notations>
<voice>1</voice>
<duration>480</duration>
<type>eighth</type>
<tie type="stop"/>
</note>
<note>
<pitch>
<step>A</step>
<octave>4</octave>
</pitch>
<notations>
<technical>
<fret>2</fret>
<string>3</string>
</technical>
</notations>
<voice>1</voice>
<duration>480</duration>
<type>eighth</type>
</note>
<note>
<pitch>
<step>B</step>
<octave>4</octave>
</pitch>
<notations>
<technical>
<fret>4</fret>
<string>3</string>
</technical>
</notations>
<voice>1</voice>
<duration>480</duration>
<type>eighth</type>
</note>
<note>
<pitch>
<step>B</step>
<octave>4</octave>
</pitch>
<notations>
<technical>
<fret>4</fret>
<string>3</string>
</technical>
</notations>
<voice>1</voice>
<duration>960</duration>
<type>quarter</type>
<tie type="stop"/>
</note>
<note>
<pitch>
<step>B</step>
<octave>4</octave>
</pitch>
<notations>
<technical>
<fret>4</fret>
<string>3</string>
</technical>
</notations>
<voice>1</voice>
<duration>480</duration>
<type>eighth</type>
</note>
<note>
<pitch>
<step>A</step>
<octave>4</octave>
</pitch>
<notations>
<technical>
<fret>2</fret>
<string>3</string>
</technical>
</notations>
<voice>1</voice>
<duration>480</duration>
<type>eighth</type>
</note>
</measure>
<measure number="3">
<note>
<pitch>
<step>B</step>
<octave>4</octave>
</pitch>
<notations>
<technical>
<fret>4</fret>
<string>3</string>
</technical>
</notations>
<voice>1</voice>
<duration>480</duration>
<type>eighth</type>
</note>
<note>
<pitch>
<step>C</step>
<octave>5</octave>
<alter>1</alter>
</pitch>
<notations>
<technical>
<fret>2</fret>
<string>2</string>
</technical>
</notations>
<voice>1</voice>
<duration>480</duration>
<type>eighth</type>
</note>
<note>
<pitch>
<step>D</step>
<octave>5</octave>
</pitch>
<notations>
<technical>
<fret>3</fret>
<string>2</string>
</technical>
</notations>
<voice>1</voice>
<duration>480</duration>
<type>eighth</type>
</note>
<note>
<pitch>
<step>D</step>
<octave>5</octave>
</pitch>
<notations>
<technical>
<fret>3</fret>
<string>2</string>
</technical>
</notations>
<voice>1</voice>
<duration>480</duration>
<type>eighth</type>
</note>
<note>
<pitch>
<step>D</step>
<octave>5</octave>
</pitch>
<notations>
<technical>
<fret>3</fret>
<string>2</string>
</technical>
</notations>
<voice>1</voice>
<duration>960</duration>
<type>quarter</type>
<tie type="stop"/>
</note>
<note>
<rest/>
<voice>1</voice>
<duration>480</duration>
<type>eighth</type>
</note>
<note>
<pitch>
<step>B</step>
<octave>4</octave>
</pitch>
<notations>
<technical>
<fret>4</fret>
<string>3</string>
</technical>
</notations>
<voice>1</voice>
<duration>480</duration>
<type>eighth</type>
</note>
</measure>
<measure number="4">
<note>
<pitch>
<step>B</step>
<octave>4</octave>
</pitch>
<notations>
<technical>
<fret>4</fret>
<string>3</string>
</technical>
</notations>
<voice>1</voice>
<duration>480</duration>
<type>eighth</type>
<tie type="stop"/>
</note>
<note>
<pitch>
<step>B</step>
<octave>4</octave>
</pitch>
<notations>
<technical>
<fret>4</fret>
<string>3</string>
</technical>
</notations>
<voice>1</voice>
<duration>480</duration>
<type>eighth</type>
<tie type="stop"/>
</note>
<note>
<pitch>
<step>A</step>
<octave>4</octave>
</pitch>
<notations>
<technical>
<fret>2</fret>
<string>3</string>
</technical>
</notations>
<voice>1</voice>
<duration>480</duration>
<type>eighth</type>
</note>
<note>
<pitch>
<step>B</step>
<octave>4</octave>
</pitch>
<notations>
<technical>
<fret>4</fret>
<string>3</string>
</technical>
</notations>
<voice>1</voice>
<duration>480</duration>
<type>eighth</type>
</note>
<note>
<pitch>
<step>B</step>
<octave>4</octave>
</pitch>
<notations>
<technical>
<fret>4</fret>
<string>3</string>
</technical>
</notations>
<voice>1</voice>
<duration>480</duration>
<type>eighth</type>
<tie type="stop"/>
</note>
<note>
<pitch>
<step>C</step>
<octave>5</octave>
<alter>1</alter>
</pitch>
<notations>
<technical>
<fret>2</fret>
<string>2</string>
</technical>
</notations>
<voice>1</voice>
<duration>480</duration>
<type>eighth</type>
</note>
<note>
<pitch>
<step>D</step>
<octave>5</octave>
</pitch>
<notations>
<technical>
<fret>3</fret>
<string>2</string>
</technical>
</notations>
<voice>1</voice>
<duration>480</duration>
<type>eighth</type>
</note>
<note>
<pitch>
<step>E</step>
<octave>5</octave>
</pitch>
<notations>
<technical>
<fret>5</fret>
<string>2</string>
</technical>
</notations>
<voice>1</voice>
<duration>480</duration>
<type>eighth</type>
</note>
</measure>
<measure number="5">
<note>
<pitch>
<step>D</step>
<octave>5</octave>
</pitch>
<notations>
<technical>
<fret>3</fret>
<string>2</string>
</technical>
</notations>
<voice>1</voice>
<duration>480</duration>
<type>eighth</type>
</note>
<note>
<pitch>
<step>C</step>
<octave>5</octave>
<alter>1</alter>
</pitch>
<notations>
<technical>
<fret>2</fret>
<string>2</string>
</technical>
</notations>
<voice>1</voice>
<duration>480</duration>
<type>eighth</type>
</note>
<note>
<pitch>
<step>B</step>
<octave>4</octave>
</pitch>
<notations>
<technical>
<fret>4</fret>
<string>3</string>
</technical>
</notations>
<voice>1</voice>
<duration>480</duration>
<type>eighth</type>
</note>
<note>
<pitch>
<step>A</step>
<octave>4</octave>
</pitch>
<notations>
<technical>
<fret>2</fret>
<string>3</string>
</technical>
</notations>
<voice>1</voice>
<duration>480</duration>
<type>eighth</type>
</note>
<note>
<pitch>
<step>B</step>
<octave>4</octave>
</pitch>
<notations>
<technical>
<fret>4</fret>
<string>3</string>
</technical>
</notations>
<voice>1</voice>
<duration>960</duration>
<type>quarter</type>
</note>
<note>
<pitch>
<step>E</step>
<octave>5</octave>
</pitch>
<notations>
<technical>
<fret>5</fret>
<string>2</string>
</technical>
</notations>
<voice>1</voice>
<duration>480</duration>
<type>eighth</type>
</note>
<note>
<pitch>
<step>D</step>
<octave>5</octave>
</pitch>
<notations>
<technical>
<fret>7</fret>
<string>3</string>
</technical>
</notations>
<voice>1</voice>
<duration>180</duration>
<type>32nd</type>
<dot/>
</note>
<note>
<rest/>
<voice>1</voice>
<duration>240</duration>
<type>16th</type>
</note>
<note>
<rest/>
<voice>1</voice>
<duration>60</duration>
<type>64th</type>
</note>
</measure>
<measure number="6">
<note>
<pitch>
<step>E</step>
<octave>5</octave>
</pitch>
<notations>
<technical>
<fret>5</fret>
<string>2</string>
</technical>
</notations>
<voice>1</voice>
<duration>480</duration>
<type>eighth</type>
</note>
<note>
<pitch>
<step>D</step>
<octave>5</octave>
</pitch>
<notations>
<technical>
<fret>7</fret>
<string>3</string>
</technical>
</notations>
<voice>1</voice>
<duration>180</duration>
<type>32nd</type>
<dot/>
</note>
<note>
<pitch>
<step>D</step>
<octave>5</octave>
</pitch>
<notations>
<technical>
<fret>7</fret>
<string>3</string>
</technical>
</notations>
<voice>1</voice>
<duration>480</duration>
<type>eighth</type>
<tie type="stop"/>
</note>
<note>
<pitch>
<step>E</step>
<octave>5</octave>
</pitch>
<notations>
<technical>
<fret>5</fret>
<string>2</string>
</technical>
</notations>
<voice>1</voice>
<duration>480</duration>
<type>eighth</type>
</note>
<note>
<pitch>
<step>F</step>
<octave>5</octave>
<alter>1</alter>
</pitch>
<notations>
<technical>
<fret>7</fret>
<string>2</string>
</technical>
</notations>
<voice>1</voice>
<duration>480</duration>
<type>eighth</type>
</note>
<note>
<pitch>
<step>E</step>
<octave>5</octave>
</pitch>
<notations>
<technical>
<fret>5</fret>
<string>2</string>
</technical>
</notations>
<voice>1</voice>
<duration>480</duration>
<type>eighth</type>
</note>
<note>
<pitch>
<step>D</step>
<octave>5</octave>
</pitch>
<notations>
<technical>
<fret>7</fret>
<string>3</string>
</technical>
</notations>
<voice>1</voice>
<duration>480</duration>
<type>eighth</type>
</note>
<note>
<pitch>
<step>E</step>
<octave>5</octave>
</pitch>
<notations>
<technical>
<fret>5</fret>
<string>2</string>
</technical>
</notations>
<voice>1</voice>
<duration>480</duration>
<type>eighth</type>
</note>
<note>
<rest/>
<voice>1</voice>
<duration>240</duration>
<type>16th</type>
</note>
<note>
<rest/>
<voice>1</voice>
<duration>60</duration>
<type>64th</type>
</note>
</measure>
<measure number="7">
<note>
<pitch>
<step>B</step>
<octave>4</octave>
</pitch>
<notations>
<technical>
<fret>4</fret>
<string>3</string>
</technical>
</notations>
<voice>1</voice>
<duration>240</duration>
<type>16th</type>
</note>
<note>
<pitch>
<step>D</step>
<octave>5</octave>
</pitch>
<notations>
<technical>
<fret>7</fret>
<string>3</string>
</technical>
</notations>
<voice>1</voice>
<duration>240</duration>
<type>16th</type>
</note>
<note>
<pitch>
<step>B</step>
<octave>4</octave>
</pitch>
<notations>
<technical>
<fret>4</fret>
<string>3</string>
</technical>
</notations>
<voice>1</voice>
<duration>240</duration>
<type>16th</type>
</note>
<note>
<pitch>
<step>A</step>
<octave>4</octave>
</pitch>
<notations>
<technical>
<fret>7</fret>
<string>4</string>
</technical>
</notations>
<voice>1</voice>
<duration>240</duration>
<type>16th</type>
</note>
<note>
<pitch>
<step>B</step>
<octave>4</octave>
</pitch>
<notations>
<technical>
<fret>4</fret>
<string>3</string>
</technical>
</notations>
<voice>1</voice>
<duration>480</duration>
<type>eighth</type>
</note>
<note>
<pitch>
<step>B</step>
<octave>4</octave>
</pitch>
<notations>
<technical>
<fret>4</fret>
<string>3</string>
</technical>
</notations>
<voice>1</voice>
<duration>480</duration>
<type>eighth</type>
</note>
<note>
<pitch>
<step>B</step>
<octave>4</octave>
</pitch>
<notations>
<technical>
<fret>4</fret>
<string>3</string>
</technical>
</notations>
<voice>1</voice>
<duration>960</duration>
<type>quarter</type>
</note>
<note>
<rest/>
<voice>1</voice>
<duration>480</duration>
<type>eighth</type>
</note>
<note>
<pitch>
<step>D</step>
<octave>5</octave>
</pitch>
<notations>
<technical>
<fret>7</fret>
<string>3</string>
</technical>
</notations>
<voice>1</voice>
<duration>180</duration>
<type>32nd</type>
<dot/>
</note>
<note>
<rest/>
<voice>1</voice>
<duration>240</duration>
<type>16th</type>
</note>
<note>
<rest/>
<voice>1</voice>
<duration>60</duration>
<type>64th</type>
</note>
</measure>
<measure number="8">
<note>
<pitch>
<step>E</step>
<octave>5</octave>
</pitch>
<notations>
<technical>
<fret>5</fret>
<string>2</string>
</technical>
</notations>
<voice>1</voice>
<duration>480</duration>
<type>eighth</type>
</note>
<note>
<pitch>
<step>A</step>
<octave>5</octave>
</pitch>
<notations>
<technical>
<fret>5</fret>
<string>1</string>
</technical>
</notations>
<voice>1</voice>
<duration>480</duration>
<type>eighth</type>
</note>
<note>
<pitch>
<step>E</step>
<octave>5</octave>
</pitch>
<notations>
<technical>
<fret>5</fret>
<string>2</string>
</technical>
</notations>
<voice>1</voice>
<duration>480</duration>
<type>eighth</type>
</note>
<note>
<pitch>
<step>A</step>
<octave>5</octave>
</pitch>
<notations>
<technical>
<fret>5</fret>
<string>1</string>
</technical>
</notations>
<voice>1</voice>
<duration>240</duration>
<type>16th</type>
</note>
<note>
<pitch>
<step>A</step>
<octave>5</octave>
</pitch>
<notations>
<technical>
<fret>5</fret>
<string>1</string>
</technical>
</notations>
<voice>1</voice>
<duration>240</duration>
<type>16th</type>
</note>
<note>
<pitch>
<step>E</step>
<octave>5</octave>
</pitch>
<notations>
<technical>
<fret>5</fret>
<string>2</string>
</technical>
</notations>
<voice>1</voice>
<duration>480</duration>
<type>eighth</type>
</note>
<note>
<pitch>
<step>A</step>
<octave>5</octave>
</pitch>
<notations>
<technical>
<fret>5</fret>
<string>1</string>
</technical>
</notations>
<voice>1</voice>
<duration>480</duration>
<type>eighth</type>
</note>
<note>
<pitch>
<step>A</step>
<octave>5</octave>
</pitch>
<notations>
<technical>
<fret>5</fret>
<string>1</string>
</technical>
</notations>
<voice>1</voice>
<duration>480</duration>
<type>eighth</type>
</note>
<note>
<pitch>
<step>A</step>
<octave>5</octave>
</pitch>
<notations>
<technical>
<fret>5</fret>
<string>1</string>
</technical>
</notations>
<voice>1</voice>
<duration>480</duration>
<type>eighth</type>
</note>
</measure>
<measure number="9">
<note>
<pitch>
<step>G</step>
<octave>5</octave>
</pitch>
<notations>
<technical>
<fret>8</fret>
<string>2</string>
</technical>
</notations>
<voice>1</voice>
<duration>240</duration>
<type>16th</type>
</note>
<note>
<pitch>
<step>F</step>
<octave>5</octave>
<alter>1</alter>
</pitch>
<notations>
<technical>
<fret>7</fret>
<string>2</string>
</technical>
</notations>
<voice>1</voice>
<duration>240</duration>
<type>16th</type>
</note>
<note>
<pitch>
<step>E</step>
<octave>5</octave>
</pitch>
<notations>
<technical>
<fret>5</fret>
<string>2</string>
</technical>
</notations>
<voice>1</voice>
<duration>480</duration>
<type>eighth</type>
</note>
<note>
<pitch>
<step>D</step>
<octave>5</octave>
</pitch>
<notations>
<technical>
<fret>7</fret>
<string>3</string>
</technical>
</notations>
<voice>1</voice>
<duration>240</duration>
<type>16th</type>
</note>
<note>
<pitch>
<step>D</step>
<octave>5</octave>
</pitch>
<notations>
<technical>
<fret>7</fret>
<string>3</string>
</technical>
</notations>
<voice>1</voice>
<duration>240</duration>
<type>16th</type>
<tie type="stop"/>
</note>
<note>
<pitch>
<step>E</step>
<octave>5</octave>
</pitch>
<notations>
<technical>
<fret>5</fret>
<string>2</string>
</technical>
</notations>
<voice>1</voice>
<duration>480</duration>
<type>eighth</type>
</note>
<note>
<pitch>
<step>D</step>
<octave>5</octave>
</pitch>
<notations>
<technical>
<fret>7</fret>
<string>3</string>
</technical>
</notations>
<voice>1</voice>
<duration>240</duration>
<type>16th</type>
</note>
<note>
<pitch>
<step>D</step>
<octave>5</octave>
</pitch>
<notations>
<technical>
<fret>7</fret>
<string>3</string>
</technical>
</notations>
<voice>1</voice>
<duration>960</duration>
<type>quarter</type>
<tie type="stop"/>
</note>
<note>
<rest/>
<voice>1</voice>
<duration>720</duration>
<type>eighth</type>
<dot/>
</note>
</measure>
<measure number="10">
<note>
<pitch>
<step>G</step>
<octave>5</octave>
</pitch>
<notations>
<technical>
<fret>12</fret>
<string>3</string>
</technical>
</notations>
<voice>1</voice>
<duration>180</duration>
<type>32nd</type>
<dot/>
</note>
<note>
<pitch>
<step>G</step>
<octave>5</octave>
</pitch>
<notations>
<technical>
<fret>12</fret>
<string>3</string>
</technical>
</notations>
<voice>1</voice>
<duration>480</duration>
<type>eighth</type>
<tie type="stop"/>
</note>
<note>
<pitch>
<step>A</step>
<octave>5</octave>
</pitch>
<notations>
<technical>
<fret>10</fret>
<string>2</string>
</technical>
</notations>
<voice>1</voice>
<duration>480</duration>
<type>eighth</type>
</note>
<note>
<pitch>
<step>C</step>
<octave>6</octave>
</pitch>
<notations>
<technical>
<fret>13</fret>
<string>2</string>
</technical>
</notations>
<voice>1</voice>
<duration>240</duration>
<type>16th</type>
</note>
<note>
<pitch>
<step>A</step>
<octave>5</octave>
</pitch>
<notations>
<technical>
<fret>10</fret>
<string>2</string>
</technical>
</notations>
<voice>1</voice>
<duration>240</duration>
<type>16th</type>
</note>
<note>
<pitch>
<step>G</step>
<octave>5</octave>
</pitch>
<notations>
<technical>
<fret>12</fret>
<string>3</string>
</technical>
</notations>
<voice>1</voice>
<duration>240</duration>
<type>16th</type>
</note>
<note>
<pitch>
<step>A</step>
<octave>5</octave>
</pitch>
<notations>
<technical>
<fret>10</fret>
<string>2</string>
</technical>
</notations>
<voice>1</voice>
<duration>240</duration>
<type>16th</type>
</note>
<note>
<pitch>
<step>A</step>
<octave>5</octave>
</pitch>
<notations>
<technical>
<fret>10</fret>
<string>2</string>
</technical>
</notations>
<voice>1</voice>
<duration>480</duration>
<type>eighth</type>
</note>
<note>
<pitch>
<step>G</step>
<octave>5</octave>
</pitch>
<notations>
<technical>
<fret>12</fret>
<string>3</string>
</technical>
</notations>
<voice>1</voice>
<duration>240</duration>
<type>16th</type>
</note>
<note>
<pitch>
<step>A</step>
<octave>5</octave>
</pitch>
<notations>
<technical>
<fret>10</fret>
<string>2</string>
</technical>
</notations>
<voice>1</voice>
<duration>240</duration>
<type>16th</type>
</note>
<note>
<pitch>
<step>B</step>
<octave>5</octave>
</pitch>
<notations>
<technical>
<fret>12</fret>
<string>2</string>
</technical>
</notations>
<voice>1</voice>
<duration>240</duration>
<type>16th</type>
</note>
<note>
<pitch>
<step>A</step>
<octave>5</octave>
</pitch>
<notations>
<technical>
<fret>10</fret>
<string>2</string>
</technical>
</notations>
<voice>1</voice>
<duration>240</duration>
<type>16th</type>
</note>
<note>
<pitch>
<step>G</step>
<octave>5</octave>
</pitch>
<notations>
<technical>
<fret>12</fret>
<string>3</string>
</technical>
</notations>
<voice>1</voice>
<duration>240</duration>
<type>16th</type>
</note>
</measure>
<measure number="11">
<note>
<pitch>
<step>B</step>
<octave>5</octave>
</pitch>
<notations>
<technical>
<fret>12</fret>
<string>2</string>
</technical>
</notations>
<voice>1</voice>
<duration>240</duration>
<type>16th</type>
</note>
<note>
<pitch>
<step>A</step>
<octave>5</octave>
</pitch>
<notations>
<technical>
<fret>10</fret>
<string>2</string>
</technical>
</notations>
<voice>1</voice>
<duration>240</duration>
<type>16th</type>
</note>
<note>
<pitch>
<step>G</step>
<octave>5</octave>
</pitch>
<notations>
<technical>
<fret>12</fret>
<string>3</string>
</technical>
</notations>
<voice>1</voice>
<duration>240</duration>
<type>16th</type>
</note>
<note>
<pitch>
<step>A</step>
<octave>5</octave>
</pitch>
<notations>
<technical>
<fret>10</fret>
<string>2</string>
</technical>
</notations>
<voice>1</voice>
<duration>240</duration>
<type>16th</type>
</note>
<note>
<pitch>
<step>B</step>
<octave>5</octave>
</pitch>
<notations>
<technical>
<fret>12</fret>
<string>2</string>
</technical>
</notations>
<voice>1</voice>
<duration>240</duration>
<type>16th</type>
</note>
<note>
<pitch>
<step>A</step>
<octave>5</octave>
</pitch>
<notations>
<technical>
<fret>10</fret>
<string>2</string>
</technical>
</notations>
<voice>1</voice>
<duration>240</duration>
<type>16th</type>
</note>
<note>
<pitch>
<step>G</step>
<octave>5</octave>
</pitch>
<notations>
<technical>
<fret>12</fret>
<string>3</string>
</technical>
</notations>
<voice>1</voice>
<duration>240</duration>
<type>16th</type>
</note>
<note>
<pitch>
<step>A</step>
<octave>5</octave>
</pitch>
<notations>
<technical>
<fret>10</fret>
<string>2</string>
</technical>
</notations>
<voice>1</voice>
<duration>240</duration>
<type>16th</type>
</note>
<note>
<pitch>
<step>B</step>
<octave>5</octave>
</pitch>
<notations>
<technical>
<fret>12</fret>
<string>2</string>
</technical>
</notations>
<voice>1</voice>
<duration>240</duration>
<type>16th</type>
</note>
<note>
<pitch>
<step>A</step>
<octave>5</octave>
</pitch>
<notations>
<technical>
<fret>10</fret>
<string>2</string>
</technical>
</notations>
<voice>1</voice>
<duration>240</duration>
<type>16th</type>
</note>
<note>
<pitch>
<step>G</step>
<octave>5</octave>
</pitch>
<notations>
<technical>
<fret>12</fret>
<string>3</string>
</technical>
</notations>
<voice>1</voice>
<duration>480</duration>
<type>eighth</type>
</note>
<note>
<pitch>
<step>A</step>
<octave>5</octave>
</pitch>
<notations>
<technical>
<fret>10</fret>
<string>2</string>
</technical>
</notations>
<voice>1</voice>
<duration>480</duration>
<type>eighth</type>
</note>
<note>
<pitch>
<step>B</step>
<octave>5</octave>
</pitch>
<notations>
<technical>
<fret>12</fret>
<string>2</string>
</technical>
</notations>
<voice>1</voice>
<duration>480</duration>
<type>eighth</type>
</note>
</measure>
<measure number="12">
<note>
<pitch>
<step>B</step>
<octave>5</octave>
</pitch>
<notations>
<technical>
<fret>12</fret>
<string>2</string>
</technical>
</notations>
<voice>1</voice>
<duration>480</duration>
<type>eighth</type>
<tie type="stop"/>
</note>
<note>
<pitch>
<step>B</step>
<octave>5</octave>
</pitch>
<notations>
<technical>
<fret>12</fret>
<string>2</string>
</technical>
</notations>
<voice>1</voice>
<duration>480</duration>
<type>eighth</type>
<tie type="stop"/>
</note>
<note>
<pitch>
<step>A</step>
<octave>5</octave>
</pitch>
<notations>
<technical>
<fret>10</fret>
<string>2</string>
</technical>
</notations>
<voice>1</voice>
<duration>480</duration>
<type>eighth</type>
</note>
<note>
<pitch>
<step>B</step>
<octave>5</octave>
</pitch>
<notations>
<technical>
<fret>12</fret>
<string>2</string>
</technical>
</notations>
<voice>1</voice>
<duration>480</duration>
<type>eighth</type>
</note>
<note>
<pitch>
<step>B</step>
<octave>5</octave>
</pitch>
<notations>
<technical>
<fret>12</fret>
<string>2</string>
</technical>
</notations>
<voice>1</voice>
<duration>1920</duration>
<type>half</type>
<tie type="stop"/>
</note>
</measure>
<measure number="13">
<note>
<pitch>
<step>E</step>
<octave>6</octave>
</pitch>
<notations>
<technical>
<fret>12</fret>
<string>1</string>
</technical>
</notations>
<voice>1</voice>
<duration>120</duration>
<type>32nd</type>
</note>
<note>
<pitch>
<step>E</step>
<octave>6</octave>
</pitch>
<notations>
<technical>
<fret>12</fret>
<string>1</string>
</technical>
</notations>
<voice>1</voice>
<duration>960</duration>
<type>quarter</type>
<tie type="stop"/>
</note>
<note>
<pitch>
<step>E</step>
<octave>6</octave>
</pitch>
<notations>
<technical>
<fret>12</fret>
<string>1</string>
</technical>
</notations>
<voice>1</voice>
<duration>120</duration>
<type>32nd</type>
</note>
<note>
<pitch>
<step>E</step>
<octave>6</octave>
</pitch>
<notations>
<technical>
<fret>12</fret>
<string>1</string>
</technical>
</notations>
<voice>1</voice>
<duration>960</duration>
<type>quarter</type>
<tie type="stop"/>
</note>
<note>
<pitch>
<step>E</step>
<octave>6</octave>
</pitch>
<notations>
<technical>
<fret>12</fret>
<string>1</string>
</technical>
</notations>
<voice>1</voice>
<duration>120</duration>
<type>32nd</type>
</note>
<note>
<pitch>
<step>E</step>
<octave>6</octave>
</pitch>
<notations>
<technical>
<fret>12</fret>
<string>1</string>
</technical>
</notations>
<voice>1</voice>
<duration>480</duration>
<type>eighth</type>
<tie type="stop"/>
</note>
<note>
<pitch>
<step>E</step>
<octave>6</octave>
</pitch>
<notations>
<technical>
<fret>12</fret>
<string>1</string>
</technical>
</notations>
<voice>1</voice>
<duration>480</duration>
<type>eighth</type>
<tie type="stop"/>
</note>
<note>
<pitch>
<step>D</step>
<octave>6</octave>
</pitch>
<notations>
<technical>
<fret>10</fret>
<string>1</string>
</technical>
</notations>
<voice>1</voice>
<duration>480</duration>
<type>eighth</type>
</note>
<note>
<pitch>
<step>B</step>
<octave>5</octave>
</pitch>
<notations>
<technical>
<fret>12</fret>
<string>2</string>
</technical>
</notations>
<voice>1</voice>
<duration>120</duration>
<type>32nd</type>
</note>
</measure>
<measure number="14">
<note>
<pitch>
<step>E</step>
<octave>6</octave>
</pitch>
<notations>
<technical>
<fret>12</fret>
<string>1</string>
</technical>
</notations>
<voice>1</voice>
<duration>480</duration>
<type>eighth</type>
</note>
<note>
<pitch>
<step>C</step>
<octave>6</octave>
<alter>1</alter>
</pitch>
<notations>
<technical>
<fret>9</fret>
<string>1</string>
</technical>
</notations>
<voice>1</voice>
<duration>480</duration>
<type>eighth</type>
</note>
<note>
<pitch>
<step>A</step>
<octave>5</octave>
</pitch>
<notations>
<technical>
<fret>10</fret>
<string>2</string>
</technical>
</notations>
<voice>1</voice>
<duration>480</duration>
<type>eighth</type>
</note>
<note>
<pitch>
<step>B</step>
<octave>5</octave>
</pitch>
<notations>
<technical>
<fret>12</fret>
<string>2</string>
</technical>
</notations>
<voice>1</voice>
<duration>480</duration>
<type>eighth</type>
</note>
<note>
<pitch>
<step>B</step>
<octave>5</octave>
</pitch>
<notations>
<technical>
<fret>12</fret>
<string>2</string>
</technical>
</notations>
<voice>1</voice>
<duration>960</duration>
<type>quarter</type>
<tie type="stop"/>
</note>
<note>
<pitch>
<step>B</step>
<octave>5</octave>
</pitch>
<notations>
<technical>
<fret>12</fret>
<string>2</string>
</technical>
</notations>
<voice>1</voice>
<duration>480</duration>
<type>eighth</type>
</note>
<note>
<rest/>
<voice>1</voice>
<duration>480</duration>
<type>eighth</type>
</note>
</measure>
<measure number="15">
<note>
<rest/>
<voice>1</voice>
<duration>3360</duration>
<type>half</type>
<dot/>
<dot/>
</note>
<note>
<pitch>
<step>E</step>
<octave>5</octave>
</pitch>
<notations>
<technical>
<fret>14</fret>
<string>4</string>
</technical>
</notations>
<voice>1</voice>
<duration>480</duration>
<type>eighth</type>
</note>
</measure>
<measure number="16">
<note>
<pitch>
<step>B</step>
<octave>5</octave>
</pitch>
<notations>
<technical>
<fret>16</fret>
<string>3</string>
</technical>
</notations>
<voice>1</voice>
<duration>120</duration>
<type>32nd</type>
</note>
<note>
<pitch>
<step>B</step>
<octave>5</octave>
</pitch>
<notations>
<technical>
<fret>16</fret>
<string>3</string>
</technical>
</notations>
<voice>1</voice>
<duration>480</duration>
<type>eighth</type>
<tie type="stop"/>
</note>
<note>
<pitch>
<step>C</step>
<octave>6</octave>
<alter>1</alter>
</pitch>
<notations>
<technical>
<fret>14</fret>
<string>2</string>
</technical>
</notations>
<voice>1</voice>
<duration>480</duration>
<type>eighth</type>
</note>
<note>
<pitch>
<step>B</step>
<octave>5</octave>
</pitch>
<notations>
<technical>
<fret>16</fret>
<string>3</string>
</technical>
</notations>
<voice>1</voice>
<duration>120</duration>
<type>32nd</type>
</note>
<note>
<pitch>
<step>B</step>
<octave>5</octave>
</pitch>
<notations>
<technical>
<fret>16</fret>
<string>3</string>
</technical>
</notations>
<voice>1</voice>
<duration>480</duration>
<type>eighth</type>
<tie type="stop"/>
</note>
<note>
<pitch>
<step>C</step>
<octave>6</octave>
<alter>1</alter>
</pitch>
<notations>
<technical>
<fret>14</fret>
<string>2</string>
</technical>
</notations>
<voice>1</voice>
<duration>480</duration>
<type>eighth</type>
</note>
<note>
<pitch>
<step>D</step>
<octave>6</octave>
</pitch>
<notations>
<technical>
<fret>15</fret>
<string>2</string>
</technical>
</notations>
<voice>1</voice>
<duration>960</duration>
<type>quarter</type>
</note>
<note>
<pitch>
<step>C</step>
<octave>6</octave>
<alter>1</alter>
</pitch>
<notations>
<technical>
<fret>14</fret>
<string>2</string>
</technical>
</notations>
<voice>1</voice>
<duration>480</duration>
<type>eighth</type>
</note>
<note>
<pitch>
<step>B</step>
<octave>5</octave>
</pitch>
<notations>
<technical>
<fret>12</fret>
<string>2</string>
</technical>
</notations>
<voice>1</voice>
<duration>240</duration>
<type>16th</type>
</note>
</measure>
<measure number="17">
<note>
<pitch>
<step>C</step>
<octave>6</octave>
<alter>1</alter>
</pitch>
<notations>
<technical>
<fret>14</fret>
<string>2</string>
</technical>
</notations>
<voice>1</voice>
<duration>480</duration>
<type>eighth</type>
</note>
<note>
<pitch>
<step>B</step>
<octave>5</octave>
</pitch>
<notations>
<technical>
<fret>12</fret>
<string>2</string>
</technical>
</notations>
<voice>1</voice>
<duration>480</duration>
<type>eighth</type>
</note>
<note>
<pitch>
<step>B</step>
<octave>5</octave>
</pitch>
<notations>
<technical>
<fret>12</fret>
<string>2</string>
</technical>
</notations>
<voice>1</voice>
<duration>480</duration>
<type>eighth</type>
</note>
<note>
<pitch>
<step>B</step>
<octave>5</octave>
</pitch>
<notations>
<technical>
<fret>12</fret>
<string>2</string>
</technical>
</notations>
<voice>1</voice>
<duration>480</duration>
<type>eighth</type>
</note>
<note>
<pitch>
<step>B</step>
<octave>5</octave>
</pitch>
<notations>
<technical>
<fret>12</fret>
<string>2</string>
</technical>
</notations>
<voice>1</voice>
<duration>960</duration>
<type>quarter</type>
<tie type="stop"/>
</note>
<note>
<pitch>
<step>D</step>
<octave>5</octave>
</pitch>
<notations>
<technical>
<fret>7</fret>
<string>3</string>
</technical>
</notations>
<voice>1</voice>
<duration>480</duration>
<type>eighth</type>
</note>
<note>
<pitch>
<step>D</step>
<octave>5</octave>
</pitch>
<notations>
<technical>
<fret>7</fret>
<string>3</string>
</technical>
</notations>
<voice>1</voice>
<duration>480</duration>
<type>eighth</type>
</note>
</measure>
<measure number="18">
<note>
<pitch>
<step>E</step>
<octave>6</octave>
</pitch>
<notations>
<technical>
<fret>12</fret>
<string>1</string>
</technical>
</notations>
<voice>1</voice>
<duration>480</duration>
<type>eighth</type>
</note>
<note>
<pitch>
<step>C</step>
<octave>6</octave>
<alter>1</alter>
</pitch>
<notations>
<technical>
<fret>14</fret>
<string>2</string>
</technical>
</notations>
<voice>1</voice>
<duration>480</duration>
<type>eighth</type>
<chord/>
</note>
<note>
<pitch>
<step>E</step>
<octave>6</octave>
</pitch>
<notations>
<technical>
<fret>12</fret>
<string>1</string>
</technical>
</notations>
<voice>1</voice>
<duration>480</duration>
<type>eighth</type>
</note>
<note>
<pitch>
<step>C</step>
<octave>6</octave>
<alter>1</alter>
</pitch>
<notations>
<technical>
<fret>14</fret>
<string>2</string>
</technical>
</notations>
<voice>1</voice>
<duration>480</duration>
<type>eighth</type>
<chord/>
</note>
<note>
<pitch>
<step>E</step>
<octave>6</octave>
</pitch>
<notations>
<technical>
<fret>12</fret>
<string>1</string>
</technical>
</notations>
<voice>1</voice>
<duration>480</duration>
<type>eighth</type>
</note>
<note>
<pitch>
<step>C</step>
<octave>6</octave>
<alter>1</alter>
</pitch>
<notations>
<technical>
<fret>14</fret>
<string>2</string>
</technical>
</notations>
<voice>1</voice>
<duration>480</duration>
<type>eighth</type>
<chord/>
</note>
<note>
<pitch>
<step>E</step>
<octave>6</octave>
</pitch>
<notations>
<technical>
<fret>12</fret>
<string>1</string>
</technical>
</notations>
<voice>1</voice>
<duration>480</duration>
<type>eighth</type>
</note>
<note>
<pitch>
<step>C</step>
<octave>6</octave>
<alter>1</alter>
</pitch>
<notations>
<technical>
<fret>14</fret>
<string>2</string>
</technical>
</notations>
<voice>1</voice>
<duration>480</duration>
<type>eighth</type>
<chord/>
</note>
<note>
<pitch>
<step>E</step>
<octave>6</octave>
</pitch>
<notations>
<technical>
<fret>12</fret>
<string>1</string>
</technical>
</notations>
<voice>1</voice>
<duration>480</duration>
<type>eighth</type>
</note>
<note>
<pitch>
<step>C</step>
<octave>6</octave>
<alter>1</alter>
</pitch>
<notations>
<technical>
<fret>14</fret>
<string>2</string>
</technical>
</notations>
<voice>1</voice>
<duration>480</duration>
<type>eighth</type>
<chord/>
</note>
<note>
<pitch>
<step>E</step>
<octave>6</octave>
</pitch>
<notations>
<technical>
<fret>12</fret>
<string>1</string>
</technical>
</notations>
<voice>1</voice>
<duration>480</duration>
<type>eighth</type>
</note>
<note>
<pitch>
<step>C</step>
<octave>6</octave>
<alter>1</alter>
</pitch>
<notations>
<technical>
<fret>14</fret>
<string>2</string>
</technical>
</notations>
<voice>1</voice>
<duration>480</duration>
<type>eighth</type>
<chord/>
</note>
<note>
<pitch>
<step>D</step>
<octave>6</octave>
</pitch>
<notations>
<technical>
<fret>15</fret>
<string>2</string>
</technical>
</notations>
<voice>1</voice>
<duration>480</duration>
<type>eighth</type>
</note>
<note>
<pitch>
<step>C</step>
<octave>6</octave>
<alter>1</alter>
</pitch>
<notations>
<technical>
<fret>14</fret>
<string>2</string>
</technical>
</notations>
<voice>1</voice>
<duration>480</duration>
<type>eighth</type>
</note>
</measure>
<measure number="19">
<note>
<pitch>
<step>G</step>
<octave>6</octave>
</pitch>
<notations>
<technical>
<fret>15</fret>
<string>1</string>
</technical>
</notations>
<voice>1</voice>
<duration>480</duration>
<type>eighth</type>
</note>
<note>
<pitch>
<step>G</step>
<octave>6</octave>
</pitch>
<notations>
<technical>
<fret>15</fret>
<string>1</string>
</technical>
</notations>
<voice>1</voice>
<duration>480</duration>
<type>eighth</type>
</note>
<note>
<pitch>
<step>F</step>
<octave>6</octave>
<alter>1</alter>
</pitch>
<notations>
<technical>
<fret>14</fret>
<string>1</string>
</technical>
</notations>
<voice>1</voice>
<duration>480</duration>
<type>eighth</type>
</note>
<note>
<pitch>
<step>F</step>
<octave>6</octave>
<alter>1</alter>
</pitch>
<notations>
<technical>
<fret>14</fret>
<string>1</string>
</technical>
</notations>
<voice>1</voice>
<duration>480</duration>
<type>eighth</type>
</note>
<note>
<pitch>
<step>E</step>
<octave>6</octave>
</pitch>
<notations>
<technical>
<fret>12</fret>
<string>1</string>
</technical>
</notations>
<voice>1</voice>
<duration>480</duration>
<type>eighth</type>
</note>
<note>
<pitch>
<step>E</step>
<octave>6</octave>
</pitch>
<notations>
<technical>
<fret>12</fret>
<string>1</string>
</technical>
</notations>
<voice>1</voice>
<duration>480</duration>
<type>eighth</type>
</note>
<note>
<pitch>
<step>D</step>
<octave>6</octave>
</pitch>
<notations>
<technical>
<fret>15</fret>
<string>2</string>
</technical>
</notations>
<voice>1</voice>
<duration>480</duration>
<type>eighth</type>
</note>
<note>
<pitch>
<step>D</step>
<octave>6</octave>
</pitch>
<notations>
<technical>
<fret>15</fret>
<string>2</string>
</technical>
</notations>
<voice>1</voice>
<duration>480</duration>
<type>eighth</type>
</note>
</measure>
</part>
</score-partwise>
